<svg xmlns="http://www.w3.org/2000/svg" style="display:none;">
  <symbol id="pothole-icon" viewBox="0 0 24 24">
    <ellipse cx="12" cy="15" rx="8.5" ry="4.5" fill="none" stroke="currentColor" stroke-width="1.8"/>
    <ellipse cx="12" cy="15" rx="5.5" ry="2.7" fill="none" stroke="currentColor" stroke-width="1.2" stroke-dasharray="2 1.5"/>
    <path d="M8.5 13.2c1.2-1.4 2.7-2.2 3.5-2.2s2.3.8 3.5 2.2" fill="none" stroke="currentColor" stroke-width="1.4" stroke-linecap="round"/>
  </symbol>

  <symbol id="crack-icon" viewBox="0 0 24 24">
    <path d="M5 4l4.2 4.4L7.3 12 11 15.2 9 20" fill="none" stroke="currentColor" stroke-width="2" stroke-linecap="round" stroke-linejoin="round"/>
    <path d="M11 3l2.7 4.2L12 10l3.6 3.7L13 18" fill="none" stroke="currentColor" stroke-width="2" stroke-linecap="round" stroke-linejoin="round"/>
    <path d="M17 5l-2 3.7" fill="none" stroke="currentColor" stroke-width="1.3" stroke-linecap="round"/>
  </symbol>

  <symbol id="waterlogging-icon" viewBox="0 0 24 24">
    <path d="M3 14c1.8-1.8 3.4-1.8 5.2 0s3.4 1.8 5.2 0 3.4-1.8 5.2 0" fill="none" stroke="currentColor" stroke-width="1.8" stroke-linecap="round"/>
    <path d="M3 18c1.8-1.8 3.4-1.8 5.2 0s3.4 1.8 5.2 0 3.4-1.8 5.2 0" fill="none" stroke="currentColor" stroke-width="1.8" stroke-linecap="round"/>
    <path d="M12 3c2.1 2.8 3.4 4.8 3.4 6.4A3.4 3.4 0 1 1 8.6 9.4C8.6 7.8 9.9 5.8 12 3z" fill="none" stroke="currentColor" stroke-width="1.6" stroke-linejoin="round"/>
  </symbol>

  <symbol id="broken-divider-icon" viewBox="0 0 24 24">
    <path d="M3 12h6" fill="none" stroke="currentColor" stroke-width="1.8" stroke-linecap="round"/>
    <path d="M15 12h6" fill="none" stroke="currentColor" stroke-width="1.8" stroke-linecap="round"/>
    <rect x="4" y="8.5" width="6" height="7" rx="1" fill="none" stroke="currentColor" stroke-width="1.5"/>
    <rect x="14" y="8.5" width="6" height="7" rx="1" fill="none" stroke="currentColor" stroke-width="1.5"/>
    <path d="M10.5 10.5l1.2 1.5-1.4 1.5 1.7 1.8" fill="none" stroke="currentColor" stroke-width="1.3" stroke-linecap="round" stroke-linejoin="round"/>
  </symbol>

  <symbol id="missing-sign-icon" viewBox="0 0 24 24">
    <path d="M12 3v18" fill="none" stroke="currentColor" stroke-width="2" stroke-linecap="round"/>
    <path d="M7 6h9l2.5 2.5L16 11H7V6z" fill="none" stroke="currentColor" stroke-width="1.7" stroke-linejoin="round"/>
    <path d="M7.5 19.5h9" fill="none" stroke="currentColor" stroke-width="1.7" stroke-linecap="round"/>
    <path d="M13 8.2c0-.9-.7-1.6-1.6-1.6-.8 0-1.5.4-1.9 1.1" fill="none" stroke="currentColor" stroke-width="1.3" stroke-linecap="round"/>
    <path d="M11.4 9.8v.9" fill="none" stroke="currentColor" stroke-width="1.3" stroke-linecap="round"/>
    <circle cx="11.4" cy="12.2" r="0.6" fill="currentColor"/>
  </symbol>

  <symbol id="location-icon" viewBox="0 0 24 24">
    <path d="M12 2.8C8.4 2.8 5.5 5.7 5.5 9.3c0 4.7 6.5 11.9 6.5 11.9s6.5-7.2 6.5-11.9C18.5 5.7 15.6 2.8 12 2.8z" fill="none" stroke="currentColor" stroke-width="1.8" stroke-linejoin="round"/>
    <circle cx="12" cy="9.2" r="2.3" fill="none" stroke="currentColor" stroke-width="1.8"/>
  </symbol>

  <symbol id="camera-icon" viewBox="0 0 24 24">
    <path d="M4 7h3l1.5-2h7L17 7h3a2 2 0 0 1 2 2v9a2 2 0 0 1-2 2H4a2 2 0 0 1-2-2V9a2 2 0 0 1 2-2z" fill="none" stroke="currentColor" stroke-width="1.8" stroke-linejoin="round"/>
    <circle cx="12" cy="14" r="3.5" fill="none" stroke="currentColor" stroke-width="1.8"/>
    <circle cx="17.8" cy="10.2" r="0.8" fill="currentColor"/>
  </symbol>

  <symbol id="mic-icon" viewBox="0 0 24 24">
    <rect x="9" y="2.5" width="6" height="10.5" rx="3" fill="none" stroke="currentColor" stroke-width="1.8"/>
    <path d="M5.5 11.5a6.5 6.5 0 0 0 13 0" fill="none" stroke="currentColor" stroke-width="1.8" stroke-linecap="round"/>
    <path d="M12 18v3.5" fill="none" stroke="currentColor" stroke-width="1.8" stroke-linecap="round"/>
    <path d="M8.5 21.5h7" fill="none" stroke="currentColor" stroke-width="1.8" stroke-linecap="round"/>
  </symbol>

  <symbol id="shield-icon" viewBox="0 0 24 24">
    <path d="M12 2.5L4 6.5v5.8c0 4.9 3.2 8.9 8 9.9 4.8-1 8-5 8-9.9V6.5L12 2.5z" fill="none" stroke="currentColor" stroke-width="1.8" stroke-linejoin="round"/>
    <path d="M9.4 12.4l2 2.1 3.6-4" fill="none" stroke="currentColor" stroke-width="2" stroke-linecap="round" stroke-linejoin="round"/>
  </symbol>

  <symbol id="check-icon" viewBox="0 0 24 24">
    <path d="M5 12.5l4.2 4.2L19 7" fill="none" stroke="currentColor" stroke-width="2.4" stroke-linecap="round" stroke-linejoin="round"/>
  </symbol>
</svg>
